<svg xmlns="http://www.w3.org/2000/svg" xmlns:xlink="http://www.w3.org/1999/xlink" viewBox="0 0 69.9 33.59"><defs><linearGradient id="a" x1="28.33" y1="-2.83" x2="36.67" y2="36.42" gradientUnits="userSpaceOnUse"><stop offset="0" stop-color="#5fc6ff"/><stop offset="1" stop-color="#434dc4"/></linearGradient><linearGradient id="b" x1="0" y1="16.79" x2="69.9" y2="16.79" xlink:href="#a"/></defs><title>cord-blue</title><path d="M48.2,33.59H16.79A16.8,16.8,0,0,1,16.79,0H48.2a16.8,16.8,0,1,1,0,33.59ZM16.79,11.8a5,5,0,0,0,0,10H48.2a5,5,0,0,0,0-10Z" style="fill:url(#a)"/><path d="M53.11,33.59h-2.7A16.85,16.85,0,0,1,38,28.06L24.74,13.45A5,5,0,0,0,21,11.8H16.79a5,5,0,0,0,0,10h9.08v11.8H16.79A16.8,16.8,0,0,1,16.79,0H21A16.83,16.83,0,0,1,33.49,5.53L46.71,20.14a5,5,0,0,0,3.7,1.65h2.7a5,5,0,0,0,0-10H45.84V0h7.27a16.8,16.8,0,0,1,0,33.59Z" style="fill:url(#b)"/></svg>