<svg xmlns="http://www.w3.org/2000/svg" xmlns:xlink="http://www.w3.org/1999/xlink" viewBox="0 0 128 128"><defs><linearGradient id="a" x1="57.38" y1="44.38" x2="65.72" y2="83.62" gradientUnits="userSpaceOnUse"><stop offset="0" stop-color="#5fc6ff"/><stop offset="1" stop-color="#434dc4"/></linearGradient><linearGradient id="b" x1="29.05" y1="64" x2="98.95" y2="64" xlink:href="#a"/></defs><title>fosscord-padded</title><rect width="128" height="128" style="fill:none"/><path d="M77.25,80.79H45.84a16.79,16.79,0,0,1,0-33.58H77.25a16.79,16.79,0,1,1,0,33.58ZM45.84,59a5,5,0,0,0,0,10H77.25a5,5,0,0,0,0-10Z" style="fill:url(#a)"/><path d="M82.16,80.79h-2.7A16.81,16.81,0,0,1,67,75.26L53.79,60.65A5,5,0,0,0,50.09,59H45.84a5,5,0,0,0,0,10h9.08v11.8H45.84a16.79,16.79,0,0,1,0-33.58h4.25a16.79,16.79,0,0,1,12.45,5.53L75.76,67.35A5,5,0,0,0,79.46,69h2.7a5,5,0,1,0,0-10H74.89V47.21h7.27a16.79,16.79,0,1,1,0,33.58Z" style="fill:url(#b)"/></svg>