<svg xmlns="http://www.w3.org/2000/svg" xmlns:xlink="http://www.w3.org/1999/xlink" viewBox="0 0 128 128"><defs><linearGradient id="a" x1="54.52" y1="35.93" x2="66.46" y2="92.07" gradientUnits="userSpaceOnUse"><stop offset="0" stop-color="#5fc6ff"/><stop offset="1" stop-color="#434dc4"/></linearGradient><linearGradient id="b" x1="14" y1="64" x2="114" y2="64" xlink:href="#a"/></defs><title>fosscord-padded</title><rect width="128" height="128" style="fill:none"/><path d="M83,88H38A24,24,0,0,1,38,40H83A24,24,0,0,1,83,88ZM38,56.86a7.14,7.14,0,1,0,0,14.28H83a7.14,7.14,0,1,0,0-14.28Z" style="fill:url(#a)"/><path d="M90,88H86.12A24.08,24.08,0,0,1,68.3,80.12L49.39,59.21a7.13,7.13,0,0,0-5.3-2.35H38a7.14,7.14,0,1,0,0,14.28H51V88H38A24,24,0,0,1,38,40h6.06a24.05,24.05,0,0,1,17.82,7.92l18.91,20.9a7.13,7.13,0,0,0,5.3,2.35H90a7.14,7.14,0,1,0,0-14.28H79.58V40H90A24,24,0,0,1,90,88Z" style="fill:url(#b)"/></svg>